<?xml version="1.0" encoding="utf-8"?>
<!-- Generator: Adobe Illustrator 24.1.1, SVG Export Plug-In . SVG Version: 6.00 Build 0)  -->
<svg version="1.1" id="Layer_1" xmlns="http://www.w3.org/2000/svg" xmlns:xlink="http://www.w3.org/1999/xlink" x="0px" y="0px"
	 viewBox="0 0 235.2 82.9" style="enable-background:new 0 0 235.2 82.9;" xml:space="preserve">
<style type="text/css">
	.st0{fill:#D2B48C;}
	.st1{fill:#0F3954;}
	.st2{display:none;fill:#120133;}
	.st3{display:none;fill:#9EAAD6;}
	.st4{display:none;}
	.st5{display:inline;fill:none;}
	.st6{display:inline;fill:#4C62AA;}
	.st7{display:inline;fill:#0F3954;}
	.st8{display:inline;}
	.st9{fill:#297CBD;}
	.st10{fill:#FFFFFF;}
</style>
<g>
	<g>
		<path class="st0" d="M106.8,40.2c0,9.9-2.7,19.2-7.6,26.1c-2.7,3.9-6.1,6.9-9.9,9c-4.2,2.3-8.9,3.5-14.1,3.5H44.9v-5.9h30.3
			c9.6,0,15.4-5.3,18.6-9.8c4.2-5.9,6.6-14.2,6.6-22.9s-2.4-17-6.6-22.9c-3.2-4.5-9-9.8-18.6-9.8h-68l0,71.2H0.7l0-77.1h74.4
			c5.1,0,9.9,1.2,14.1,3.5c3.8,2.1,7.2,5.1,9.9,9C104.1,21,106.8,30.3,106.8,40.2z"/>
		<path class="st0" d="M15.6,78.7h6.6l0-57.3H73c5.3,0,8.5,3,10.3,5.5c2.4,3.4,3.8,8.3,3.8,13.4s-1.4,9.9-3.8,13.4
			c-1.8,2.5-5,5.5-10.3,5.5H44.9v6.1H73c3.4,0,6.5-0.8,9.3-2.3c2.5-1.4,4.7-3.4,6.5-5.9c3.2-4.5,4.9-10.4,4.9-16.7
			c0-6.3-1.7-12.3-4.9-16.7c-1.8-2.5-4-4.5-6.5-5.9c-2.8-1.5-5.9-2.3-9.3-2.3H15.6L15.6,78.7z"/>
		<path class="st1" d="M76.4,32.6c-0.9-1.2-2-2.2-3.2-2.9c-1.4-0.8-3-1.2-4.7-1.2H29.7l0,50.2h6.4l0-44.2h32.4c1.1,0,2,0.5,2.7,1.4
			c0.8,1.1,1.2,2.7,1.2,4.5c0,1.7-0.5,3.3-1.2,4.5c-0.7,1-1.6,1.4-2.7,1.4l-23.7,0v6h23.7c1.7,0,3.3-0.4,4.7-1.2
			c1.3-0.7,2.4-1.7,3.2-2.9c1.5-2.1,2.3-4.8,2.3-7.7C78.7,37.5,77.9,34.7,76.4,32.6z"/>
	</g>
	<path class="st1" d="M128.6,8.5c5,0,8.1,2.9,8.1,7.6c0,6-6.5,9.2-11.4,6.6l0-0.4c0,0,6.5,1.4,8.2-4.2c0.2-0.6,0.3-1.5,0.3-2.4
		c-0.1-3.6-2-6-5.3-6h-4.5v23.5c0,1.4,1.1,2.5,2.5,2.5h0.5l0,0.4h-8.6l0-0.4h0.5c1.4,0,2.5-1.1,2.5-2.5v-22
		c-0.1-1.3-1.2-2.3-2.5-2.3h-0.5l0-0.4L128.6,8.5z"/>
	<path class="st1" d="M157.4,36l0-0.4h0.5c1.2,0,2.2-0.9,2.3-2.1V25h-14.5v8.6c0,1.2,1,2.1,2.3,2.1h0.5l0,0.4h-8l0-0.4h0.5
		c1.3,0,2.3-0.9,2.3-2.1V15c0-1.2-1-2.1-2.3-2.1h-0.5l0-0.4h8l0,0.4H148c-1.2,0-2.2,0.9-2.3,2.1v8.9h14.5V15c0-1.2-1-2.1-2.3-2.1
		h-0.5l0-0.4h8l0,0.4H165c-1.2,0-2.2,0.9-2.3,2.1v18.6c0,1.2,1.1,2.1,2.3,2.1h0.5l0,0.4H157.4z"/>
	<path class="st1" d="M169.7,36l0-0.4h0.5c1.5,0,2.6-1,2.7-2.1V15c0-1.2-1.2-2.1-2.7-2.1h-0.5l0-0.4h8.9v0.4h-0.5
		c-1.4,0-2.6,0.9-2.7,2.1v18.6c0,1.2,1.2,2.1,2.7,2.1h0.5l0,0.4H169.7z"/>
	<path class="st1" d="M201.1,30.4l-2.2,5.6h-16l0-0.4h0.5c1.3,0,2.2-0.9,2.3-2.1V15c0-1.2-1.1-2.1-2.3-2.1h-0.5l0-0.4h8.1l0,0.4
		h-0.5c-1.3,0-2.3,0.9-2.3,2.1v19.9h6.1c3.8-0.1,5.1-1.9,6.2-4.4H201.1z"/>
	<path class="st1" d="M203.1,36l0-0.4h0.5c1.5,0,2.6-1,2.7-2.1V15c0-1.2-1.2-2.1-2.7-2.1h-0.5l0-0.4h8.9v0.4h-0.5
		c-1.4,0-2.6,0.9-2.7,2.1v18.6c0,1.2,1.2,2.1,2.7,2.1h0.5l0,0.4H203.1z"/>
	<path class="st1" d="M225.4,12.4c5.5,0,9,2.6,9,6.7c0,6-6,8.7-11.3,6.1v-0.4c0,0,6.2,1.7,8.2-4c0.2-0.6,0.3-1.4,0.3-2.1
		c0-3.2-2.3-5.1-6.2-5.1h-3.8v19.9c0,1.2,1,2.1,2.3,2.1h0.5l0,0.4h-8.2l0-0.4h0.5c1.3,0,2.2-0.9,2.3-2.1V14.9c0-1.2-1-2.1-2.3-2.1
		h-0.5l0-0.4L225.4,12.4z"/>
	<path class="st1" d="M128.5,46l0,0.4H128c-1.4,0-2.5,1.1-2.5,2.5v24.7c0,4.4-3.1,7.9-7.2,7.9V81c2.6-0.9,4.6-4.2,4.6-7.6V48.8
		c0-1.4-1.1-2.5-2.5-2.5h-0.5l0-0.4L128.5,46z"/>
	<path class="st1" d="M158.4,61.7c0,7.3-5.9,12.3-13.3,12.3c-7.3,0-13.3-5-13.3-12.3s5.9-12.3,13.3-12.3
		C152.4,49.4,158.4,54.4,158.4,61.7z M155.5,61.7c0-6.6-4.6-11.2-10.4-11.2c-5.8,0-10.4,4.5-10.4,11.2c0,6.6,4.6,11.2,10.4,11.2
		C150.9,72.9,155.5,68.3,155.5,61.7z"/>
	<path class="st1" d="M178.9,73.5l0-0.4h0.5c1.2,0,2.2-0.9,2.3-2.1v-8.6h-14.5V71c0,1.2,1,2.1,2.3,2.1h0.5l0,0.4h-8l0-0.4h0.5
		c1.3,0,2.3-0.9,2.3-2.1V52.4c0-1.2-1-2.1-2.3-2.1h-0.5l0-0.4h8l0,0.4h-0.5c-1.2,0-2.2,0.9-2.3,2.1v8.9h14.5v-8.8
		c0-1.2-1-2.1-2.3-2.1h-0.5l0-0.4h8l0,0.4h-0.5c-1.2,0-2.2,0.9-2.3,2.1V71c0,1.2,1.1,2.1,2.3,2.1h0.5l0,0.4H178.9z"/>
	<path class="st1" d="M218.3,49.9l0,0.4h-0.7c-1.2,0-2.1,0.9-2.2,2V69c0,2.5,0.4,5,0.4,5h-0.4L195,54.6V71c0,1.1,1,2.1,2.2,2.1h0.7
		l0,0.4h-7.4l0-0.4h0.7c1.2,0,2.2-0.9,2.2-2.1V54.2c0-2.7-0.4-4.9-0.4-4.9l0.4,0l20.4,19.2V52.3c-0.1-1.1-1-2-2.2-2h-0.7l0-0.4
		H218.3z"/>
</g>
</svg>
